<?xml version="1.0" encoding="UTF-8"?>
<svg width="178px" height="56px" viewBox="0 0 178 56" version="1.1" xmlns="http://www.w3.org/2000/svg" xmlns:xlink="http://www.w3.org/1999/xlink">
    <!-- Generator: Sketch 49.3 (51167) - http://www.bohemiancoding.com/sketch -->
    <title>logo_pagtitle</title>
    <desc>Created with Sketch.</desc>
    <defs>
        <path d="M25.6044727,0.441209964 C28.5973943,0.441209964 30.6934322,1.60905048 31.5799811,4.54931654 C31.9295775,6.86796651 31.5525382,7.4795413 30.1544099,9.41344525 L26.0757495,10.7256618 C27.3874325,9.42041787 28.7747609,6.66363972 28.5011211,5.42372335 C28.0134563,3.85146124 27.1489224,3.2 25.6044727,3.2 C23.87924,3.2 22.7432699,3.81074228 21.9824681,5.10100808 L20.9649803,5.69539687 L19.6552622,4.88837139 C18.1154822,3.36906647 16.5105871,3.2 15.1736504,3.2 C14.3224201,3.2 13.1829776,3.88256122 12.5808931,4.88837139 C11.8532474,6.10393722 11.9303409,7.62446071 13.1301068,9.41344525 C14.3956364,11.3004909 15.6545314,12.8563741 17.1479266,14.4610703 C17.5793414,14.924638 19.9750706,17.3781388 20.5814406,18.0626805 C20.8796625,18.3993484 21.1486339,18.7209714 21.3973487,19.040546 C21.7675703,19.5162453 22.3589637,20.1813168 23.3055786,21.1966856 C23.4931379,21.3978676 25.462589,23.4909835 26.0757495,24.1535514 C26.4433266,24.5507471 26.7820796,24.9210806 27.1029094,25.2770904 C29.5408124,27.9823159 30.9973373,29.9103412 31.5525382,31.4438547 C33.0710362,35.6380789 29.6610752,39.1590143 25.0255427,39.1590143 C22.9921418,39.1590143 21.1889232,38.3222723 19.9591527,37.2599166 C18.6854913,38.3192544 17.1512139,39.1590143 15.1736504,39.1590143 C12.2648362,39.1590143 10.1525123,39.099589 9.15013515,36.5402743 C8.3876253,34.9753677 8.40679889,34.1332363 8.40679889,32.5332025 L11.2990828,30.9988289 C11.2990828,32.1149427 11.4794903,33.5843644 12.0517671,34.7420234 L12.1131232,34.8827633 C12.6180363,36.2116127 13.5307107,36.8029118 15.1736504,36.8029118 C16.9344274,36.8029118 18.0634468,36.2406793 18.7735375,35.091403 L20.2360238,33.8507171 L21.5461991,35.1789889 C22.1237979,36.2611182 23.1963835,36.8029118 25.0255427,36.8029118 C27.5229808,36.8029118 29.2767489,34.558046 28.5436644,32.5332025 C28.1825909,31.5358858 26.8713847,29.8002211 24.7257668,27.4193306 C24.415021,27.0745106 24.0856402,26.7144231 23.7271353,26.3270305 C23.1249337,25.6763046 21.1611029,23.5891618 20.9649803,23.3787945 C19.9552906,22.2957698 19.3187258,21.5798993 18.8720219,21.0059277 C18.667361,20.742958 18.441415,20.4727827 18.1860656,20.1845143 C17.6419196,19.5702184 15.2851952,17.1566629 14.8054056,16.6411151 C13.2029182,14.9191962 11.8390592,13.2335867 10.4724305,11.1957911 C8.59939035,8.40287962 8.4547889,5.55088873 9.83522917,3.2447991 C11.0009311,1.2974399 13.1668295,0.441209964 15.1736504,0.441209964 C16.9646824,0.441209964 18.5535914,1.28197519 20.2360238,2.57993908 C21.5581776,1.27479621 23.4791976,0.441209964 25.6044727,0.441209964 Z" id="path-1"></path>
        <path d="M25.7554448,0.220980258 C28.7483664,0.220980258 30.5757829,1.15552741 31.4623318,4.09579348 C31.7558242,6.29287196 31.7124362,6.51792081 31.4264245,7.62792567 L27.2538815,9.63442551 C28.5655645,8.32918157 29.3236987,6.55755579 29.0500588,5.31763942 C28.562394,3.74537731 27.5059813,2.56100536 25.9615315,2.56100536 C24.2362988,2.56100536 22.7196658,3.15736943 21.958864,4.44763524 L21.1159524,5.32198834 L20.2366219,3.89655778 C18.6968419,2.37725286 16.6560526,2.16009544 15.3246226,2.59591524 C14.4892415,2.86936229 13.3339497,4.10354148 12.7318652,5.10935164 C12.0042195,6.32491747 12.081313,7.84544096 13.2810789,9.63442551 C14.5466085,11.5214711 15.8055035,13.0773544 17.2988987,14.6820505 C17.7303135,15.1456183 20.1260427,17.5991191 20.7324127,18.2836608 C21.0306346,18.6203286 21.299606,18.9419517 21.5483208,19.2615263 C21.9185424,19.7372256 22.5099358,20.402297 23.4565507,21.4176659 C23.64411,21.6188478 25.6135611,23.7119638 26.2267216,24.3745316 C26.5942987,24.7717274 26.9330517,25.1420609 27.2538815,25.4980706 C29.6917845,28.2032962 31.1483094,30.1313214 31.7035103,31.664835 C33.2220083,35.8590591 29.960208,39.7928954 25.3246755,39.7928954 C23.2856589,39.7928954 21.634594,38.6440727 20.4106106,37.4387224 C19.1443699,38.6424621 17.3077304,39.6540039 15.3246226,39.6540039 C12.4158083,39.6540039 10.3034844,38.8731607 9.30110725,36.313846 C8.5385974,34.7489394 8.1509721,33.159574 8.1509721,31.5595402 L11.3315472,30.4343036 C11.3315472,31.5504174 11.6304624,33.8053447 12.2027392,34.9630037 L12.2640953,35.1037435 C12.7690084,36.432593 14.0281553,37.6421972 15.6710951,37.6421972 C17.3687146,37.6421972 18.124482,36.3680519 18.8644324,34.9371149 L20.2366219,34.9371149 L21.746517,35.0194412 C22.3595091,36.3916337 23.986015,37.3354889 25.7554448,37.3354889 C28.2528829,37.3354889 29.3851777,34.6674466 28.6520932,32.6426031 C28.2910197,31.6452864 27.0223568,30.0212014 24.876739,27.6403108 C24.5659931,27.2954908 24.2366123,26.9354033 23.8781074,26.5480108 C23.2759058,25.8972849 21.312075,23.810142 21.1159524,23.5997748 C20.1062627,22.51675 19.4696979,21.8008795 19.022994,21.2269079 C18.8183331,20.9639383 18.5923871,20.6937629 18.3370378,20.4054946 C17.7928917,19.7911986 15.4361673,17.3776431 14.9563777,16.8620953 C13.3538903,15.1401764 11.9900313,13.4545669 10.6234026,11.4167714 C8.75036245,8.62385988 8.93722413,5.72706989 10.3176644,3.42098026 C11.4833663,1.47362105 13.3178016,0.220980258 15.3246226,0.220980258 C17.1156546,0.220980258 18.8564449,0.895323893 20.5388773,2.19328778 C21.8610311,0.888144911 23.6301697,0.220980258 25.7554448,0.220980258 Z" id="path-2"></path>
    </defs>
    <g id="Page-1" stroke="none" stroke-width="1" fill="none" fill-rule="evenodd">
        <g id="测评首页" transform="translate(-30.000000, -19.000000)">
            <g id="logo_pagtitle" transform="translate(30.000000, 19.000000)">
                <g id="Group" transform="translate(8.000000, 0.800000)">
                    <path d="M30.7014093,21.3905166 C31.4632725,20.6323934 31.797207,19.7063727 31.703213,18.6124546 C31.3954311,17.5916867 30.7305768,17.0813028 29.7086502,17.0813028 C28.6867236,17.0813028 27.9385881,17.4835299 27.4642438,18.2879841 C26.6489482,17.4835299 25.8364275,17.0813028 25.0266817,17.0813028 C23.8120629,17.0813028 21.9566495,18.7502104 23.5129577,20.9884491 C24.7578309,22.7787906 26.2938183,23.008395 27.3496934,23.7186972 C27.3438834,23.7163404 29.5586145,22.5277014 30.7014093,21.3905166 Z" id="Path-3-Copy-4" fill="#04A338" transform="translate(27.318697, 20.400000) scale(-1, 1) rotate(-90.000000) translate(-27.318697, -20.400000) "></path>
                    <path d="M23.782712,13.1092139 C24.5445752,12.3510907 24.8785098,11.42507 24.7845157,10.3311518 C24.4767338,9.31038394 23.8118796,8.8 22.789953,8.8 C21.7680264,8.8 21.0198909,9.20222712 20.5455466,10.0066813 C19.730251,9.20222712 18.9177303,8.8 18.1079844,8.8 C16.8933657,8.8 15.0379523,10.4689077 16.5942605,12.7071463 C17.8391336,14.4974879 19.3751211,14.7270923 20.4309962,15.4373945 C20.4251862,15.4350376 22.6399172,14.2463987 23.782712,13.1092139 Z" id="Path-3-Copy" fill="#04A338"></path>
                    <path d="M16.3014093,20.5905166 C17.0632725,19.8323934 17.397207,18.9063727 17.303213,17.8124546 C16.9954311,16.7916867 16.3305768,16.2813028 15.3086502,16.2813028 C14.2867236,16.2813028 13.5385881,16.6835299 13.0642438,17.4879841 C12.2489482,16.6835299 11.4364275,16.2813028 10.6266817,16.2813028 C9.41206292,16.2813028 7.55664953,17.9502104 9.11295772,20.1884491 C10.3578309,21.9787906 11.8938183,22.208395 12.9496934,22.9186972 C12.9438834,22.9163404 15.1586145,21.7277014 16.3014093,20.5905166 Z" id="Path-3-Copy-3" fill="#04A338" transform="translate(12.918697, 19.600000) rotate(-90.000000) translate(-12.918697, -19.600000) "></path>
                    <path d="M22.982712,28.3092139 C23.7445752,27.5510907 24.0785098,26.62507 23.9845157,25.5311518 C23.6767338,24.5103839 23.0118796,24 21.989953,24 C20.9680264,24 20.2198909,24.4022271 19.7455466,25.2066813 C18.930251,24.4022271 18.1177303,24 17.3079844,24 C16.0933657,24 14.2379523,25.6689077 15.7942605,27.9071463 C17.0391336,29.6974879 18.5751211,29.9270923 19.6309962,30.6373945 C19.6251862,30.6350376 21.8399172,29.4463987 22.982712,28.3092139 Z" id="Path-3-Copy-2" fill="#04A338" transform="translate(19.600000, 27.318697) scale(1, -1) translate(-19.600000, -27.318697) "></path>
                    <g id="Path-3" fill-rule="nonzero">
                        <use fill="#04A338" fill-rule="evenodd" xlink:href="#path-1"></use>
                        <path stroke="#FFFFFF" stroke-width="0.8" d="M19.9563097,37.7766739 C18.4776459,38.9391353 16.9493171,39.5590143 15.1736504,39.5590143 C11.1468219,39.5590143 9.71874824,39.0889193 8.79055001,36.7154842 C8.41571356,35.9462037 8.20742082,35.3143502 8.10396603,34.6550548 C8.02089683,34.1256725 8.00645968,33.7280169 8.00677692,32.646723 C8.0067934,32.5903492 8.0067934,32.5903492 8.00679889,32.5332025 L8.00679889,32.2926026 L11.6990828,30.3338244 L11.6990828,30.9988289 C11.6990828,32.2893591 11.9338496,33.6008584 12.418438,34.5821719 L12.4870413,34.7406884 C12.9341566,35.9174232 13.7022172,36.4029118 15.1736504,36.4029118 C16.7836576,36.4029118 17.7928172,35.9176901 18.4332505,34.8811536 L18.5147722,34.7863776 L20.2602211,33.3056431 L21.830975,34.8980927 L21.8990775,34.990636 C22.4104288,35.9486508 23.3652001,36.4029118 25.0255427,36.4029118 C27.2274173,36.4029118 28.8108566,34.4462256 28.1675552,32.6693709 C27.8358182,31.7530842 26.5727282,30.0663215 24.428624,27.6871106 C24.1235395,27.3485727 23.7963252,26.9907132 23.4335586,26.5987154 C23.2023987,26.3489291 22.7606435,25.8766208 22.1393741,25.2143649 C22.1365566,25.2113616 22.1365566,25.2113616 22.1337391,25.2083582 C21.808534,24.8617031 20.7301657,23.7135136 20.6724055,23.6515581 C19.6172715,22.5197884 18.9976629,21.8186372 18.5563561,21.2516004 C18.3588145,20.9977783 18.138743,20.7343427 17.8866438,20.4497435 C17.6621423,20.1962999 17.1278444,19.6340397 16.2409296,18.7129043 C16.2309684,18.7025588 16.2309684,18.7025588 16.2210065,18.6922136 C15.1270539,17.5584056 14.6982265,17.113092 14.5125904,16.9136207 C12.8351218,15.1111323 11.473872,13.4072067 10.140221,11.4185844 C8.21929431,8.55426874 8.0005031,5.53100284 9.49202119,3.03935257 C10.6507172,1.10369702 12.8293065,0.0412099643 15.1736504,0.0412099643 C16.8426693,0.0412099643 18.383407,0.696264411 20.2083014,2.05683212 C21.6297386,0.780617128 23.5601584,0.0412099643 25.6044727,0.0412099643 C28.919652,0.0412099643 31.0603996,1.44050457 31.9755105,4.48968026 C32.315119,6.74208674 32.0942726,7.41294127 30.4785686,9.64779787 L30.4017432,9.75406341 L24.6137004,11.616235 L25.7936036,10.442124 C27.0967694,9.14535548 28.3351625,6.52782488 28.1190763,5.54222128 C27.6844222,4.14086896 26.9768826,3.6 25.6044727,3.6 C24.0265642,3.6 23.0179275,4.13246262 22.327029,5.30417749 L22.1842328,5.44639337 L20.9594915,6.16185405 L20.7551442,6.03593884 L19.374319,5.17310085 C18.1560081,3.97099045 16.9403357,3.6 15.1736504,3.6 C14.4388471,3.6 13.4375398,4.23609455 12.924101,5.09381792 C12.2486094,6.22225804 12.3905686,7.5925568 13.4623163,9.19065202 C14.6749437,10.9988146 15.9061641,12.5396169 17.4407417,14.1885647 C17.5395915,14.2947816 17.7423012,14.5064098 18.1107826,14.888744 C18.3550088,15.1420433 18.3550088,15.1420433 18.6246156,15.4215479 C18.9026942,15.7099301 19.0214065,15.8331268 19.189313,16.0076533 C19.2026547,16.0215214 19.2026547,16.0215214 19.2159959,16.0353907 C20.0776342,16.9311679 20.6257623,17.5094643 20.8808625,17.7974513 C21.188536,18.1447893 21.462065,18.4724274 21.7130145,18.7948733 C22.0661967,19.2486785 22.6377225,19.8937337 23.5981534,20.923922 C23.649667,20.9791771 24.7176658,22.1162971 25.0657973,22.4874091 C25.0687194,22.4905241 25.0687194,22.4905241 25.0716415,22.4936391 C25.690672,23.1535414 26.1336066,23.627153 26.3693262,23.8818665 C26.7439312,24.2866564 27.0828072,24.6572785 27.4000522,25.0093103 C30.0020939,27.8966728 31.3749076,29.7782083 31.9286475,31.3076863 C33.5071737,35.6677137 30.0657926,39.5590143 25.0255427,39.5590143 C23.1590928,39.5590143 21.3523742,38.8834993 19.9563097,37.7766739 Z"></path>
                    </g>
                    <path d="M25.7873548,8.52651283e-14 C27.5528754,8.52651283e-14 28.705785,0.60453835 29.9646497,1.97230752 L28.705785,5.16190169 C28.2477868,3.79140137 27.3889945,3.2 25.7873548,3.2 C24.0621221,3.2 22.926152,3.81074228 22.1653502,5.10100808 L21.1234678,6.86796651 L19.6633336,5.42724831 C18.1235535,3.9079434 16.6934692,3.2 15.3565325,3.2 C14.5547497,3.2 12.358099,4.09477869 11.9212268,6.13251849 L11.4868481,1.55084556 C12.5411266,0.532723732 14.1616933,8.52651283e-14 15.3565325,8.52651283e-14 C17.1475645,8.52651283e-14 18.8883549,0.674343635 20.5707873,1.97230752 C21.8929411,0.667164653 23.6661527,8.5351505e-14 25.7873548,8.52651283e-14 Z" id="Path-3-Copy-5" fill="#ACCE22" fill-rule="nonzero"></path>
                    <path d="M25.5005067,32.8 C27.2660274,32.8 28.418937,33.4045384 29.6778016,34.7723075 L28.418937,37.9619017 C27.9609388,36.5914014 27.1021464,36 25.5005067,36 C23.775274,36 22.6393039,36.6107423 21.8785021,37.9010081 L20.8366197,39.6679665 L19.3764855,38.2272483 C17.8367054,36.7079434 16.4066211,36 15.0696845,36 C14.2679016,36 12.071251,36.8947787 11.6343787,38.9325185 L11.2,34.3508456 C12.2542785,33.3327237 13.8748452,32.8 15.0696845,32.8 C16.8607165,32.8 18.6015068,33.4743436 20.2839392,34.7723075 C21.606093,33.4671647 23.3793046,32.8 25.5005067,32.8 Z" id="Path-3-Copy-5" fill="#ACCE22" fill-rule="nonzero" transform="translate(20.438901, 36.233983) scale(1, -1) translate(-20.438901, -36.233983) "></path>
                    <g id="Path-3" fill-rule="nonzero" transform="translate(20.115607, 20.006938) rotate(-270.000000) translate(-20.115607, -20.006938) ">
                        <use fill="#04A338" fill-rule="evenodd" xlink:href="#path-2"></use>
                        <path stroke="#FFFFFF" stroke-width="0.8" d="M20.4040879,37.9860949 C18.9508303,39.2589987 17.1335644,40.0540039 15.3246226,40.0540039 C11.9815202,40.0540039 9.92924716,39.0144775 8.94152211,36.4890559 C8.15071301,34.8660705 7.7509721,33.2170329 7.7509721,31.5595402 L7.7509721,31.276759 L11.7315472,29.8684951 L11.7315472,30.4343036 C11.7315472,31.7552699 12.0897179,33.8317431 12.5694101,34.8031522 L12.6380134,34.9616686 C13.1417478,36.2874159 14.3304033,37.2421972 15.6710951,37.2421972 C16.9156924,37.2421972 17.5555246,36.5974845 18.5091262,34.7533828 L18.6209603,34.5371149 L18.8644324,34.5371149 L20.2583994,34.5377082 L22.0121296,34.6333295 L22.1117319,34.8562907 C22.6577591,36.0785812 24.1391058,36.9354889 25.7554448,36.9354889 C27.7865581,36.9354889 28.9869144,34.7424234 28.275984,32.7787716 C27.9541424,31.8898168 26.7919624,30.363049 24.5795961,27.9080909 C24.2745116,27.569553 23.9472973,27.2116934 23.5845307,26.8196957 C23.3533708,26.5699094 22.9116157,26.097601 22.2903462,25.4353452 C22.2875287,25.4323418 22.2875287,25.4323418 22.2847112,25.4293385 C21.9595061,25.0826834 20.8811378,23.9344938 20.8233776,23.8725384 C19.7682436,22.7407686 19.148635,22.0396175 18.7073282,21.4725806 C18.5097866,21.2187586 18.2897151,20.9553229 18.0376159,20.6707238 C17.8131144,20.4172802 17.2788165,19.8550199 16.3919017,18.9338845 C16.3819405,18.9235391 16.3819405,18.9235391 16.3719787,18.9131939 C15.278026,17.7793858 14.8491986,17.3340722 14.6635625,17.1346009 C12.9860939,15.3321125 11.6248441,13.6281869 10.2911931,11.6395646 C8.44165028,8.8816903 8.4083648,5.83176255 9.97445642,3.21553372 C11.2369968,1.10640128 13.2120205,-0.179019742 15.3246226,-0.179019742 C17.0975145,-0.179019742 18.8308215,0.445810054 20.5100544,1.6715332 C21.8785289,0.446772644 23.6583346,-0.179019742 25.7554448,-0.179019742 C29.0962204,-0.179019742 30.9474891,1.00269777 31.85881,4.04283072 C32.1419137,6.16213998 32.1351993,6.48028298 31.8137727,7.72773253 L31.7673708,7.90781716 L25.293308,11.0210759 L26.9717356,9.35088771 C28.2080414,8.12065096 28.8967496,6.47905814 28.668014,5.43613735 C28.1879397,3.88834746 27.2126107,2.96100536 25.9615315,2.96100536 C24.27073,2.96100536 22.9492702,3.55549674 22.246837,4.72525283 L21.0461584,5.97071804 L20.7755176,5.53199831 L19.9556786,4.18128725 C18.672926,2.91559199 16.8497227,2.51758507 15.4490586,2.97606742 C14.7825996,3.19422086 13.6912529,4.28544124 13.0750731,5.31479818 C12.3995815,6.4432383 12.5415407,7.81353706 13.6132884,9.41163227 C14.8259158,11.2197949 16.0571363,12.7605971 17.5917138,14.4095449 C17.6905636,14.5157619 17.8932733,14.7273901 18.2617547,15.1097242 C18.5059809,15.3630235 18.5059809,15.3630235 18.7755877,15.6425281 C19.0536663,15.9309104 19.1723786,16.0541071 19.3402851,16.2286335 C19.3536268,16.2425017 19.3536268,16.2425017 19.366968,16.256371 C20.2286063,17.1521481 20.7767344,17.7304445 21.0318346,18.0184315 C21.3395081,18.3657695 21.6130371,18.6934076 21.8639866,19.0158536 C22.2171688,19.4696588 22.7886946,20.114714 23.7491255,21.1449022 C23.8006391,21.2001574 24.8686379,22.3372774 25.2167694,22.7083894 C25.2196915,22.7115044 25.2196915,22.7115044 25.2226136,22.7146194 C25.8416441,23.3745217 26.2845787,23.8481332 26.5202983,24.1028467 C26.8949033,24.5076366 27.2337793,24.8782588 27.5510243,25.2302906 C30.153066,28.117653 31.5258797,29.9991886 32.0796196,31.5286665 C33.6788111,35.9457736 30.2842412,40.1928954 25.3246755,40.1928954 C23.523594,40.1928954 21.9136096,39.388908 20.4040879,37.9860949 Z"></path>
                    </g>
                    <path d="M41.8473744,17.0377664 C43.6128951,17.0377664 44.9811706,17.9356487 46.2400352,19.3034179 L44.7937686,22.7265814 C44.3357704,21.356081 43.5100823,20.5078089 42.1484564,20.2577848 C40.7868304,20.0077607 39.2872536,20.8685271 38.5264518,22.1587929 L37.4845694,23.9257513 L36.0244352,22.4850331 C34.4846551,20.9657282 33.0545708,20.2577848 31.7176341,20.2577848 C30.9158513,20.2577848 28.7192006,21.1525635 28.2823284,23.1903033 L27.8479497,18.6086304 C28.9022282,17.5905085 30.5227949,17.0577848 31.7176341,17.0577848 C33.5086661,17.0577848 35.2494565,17.7321284 36.9318889,19.0300923 C38.2540427,17.7249495 39.7261723,17.0377664 41.8473744,17.0377664 Z" id="Path-3-Copy-5" fill="#ACCE22" fill-rule="nonzero" transform="translate(37.043992, 20.481759) scale(1, -1) rotate(-270.000000) translate(-37.043992, -20.481759) "></path>
                    <path d="M8.49558912,17.0049176 C10.2611098,17.0049176 11.4140194,17.6094559 12.6728841,18.9772251 L11.4140194,22.1668193 C10.9560212,20.7963189 10.0972289,20.2049176 8.49558912,20.2049176 C6.77035642,20.2049176 5.63438636,20.8156598 4.87358454,22.1059256 L3.83170216,23.8728841 L2.37156791,22.4321659 C0.83178784,20.912861 -0.598296442,20.2049176 -1.9352331,20.2049176 C-2.73701598,20.2049176 -4.9336666,21.0996962 -5.37053886,23.1374361 L-5.80491756,18.5557631 C-4.75063906,17.5376413 -3.13007237,17.0049176 -1.9352331,17.0049176 C-0.144201099,17.0049176 1.59658926,17.6792612 3.27902161,18.9772251 C4.60117544,17.6720822 6.37438705,17.0049176 8.49558912,17.0049176 Z" id="Path-3-Copy-6" fill="#ACCE22" fill-rule="nonzero" transform="translate(3.433983, 20.438901) scale(-1, -1) rotate(-270.000000) translate(-3.433983, -20.438901) "></path>
                </g>
                <text id="渡仁心理" font-family="MicrosoftYaHei, Microsoft YaHei" font-size="27.2" font-weight="normal" letter-spacing="1.2" fill="#141414">
                    <tspan x="65.6" y="29">渡仁心</tspan>
                    <tspan x="150.8" y="29">理</tspan>
                </text>
                <text id="专业/诚信/开放" font-family="MicrosoftYaHei, Microsoft YaHei" font-size="14.4" font-weight="normal" letter-spacing="1.67999992" fill="#00A238">
                    <tspan x="66.4" y="53.4">专业/诚信/开</tspan>
                    <tspan x="162.464687" y="53.4">放</tspan>
                </text>
                <text id="Doreen" font-family="MinionPro-Regular, Minion Pro" font-size="19.2" font-weight="normal" fill="#00A238">
                    <tspan x="0" y="54.8">Doreen</tspan>
                </text>
            </g>
        </g>
    </g>
</svg>