<?xml version="1.0" encoding="iso-8859-1"?>
<!-- Generator: Adobe Illustrator 17.0.0, SVG Export Plug-In . SVG Version: 6.00 Build 0)  -->
<!DOCTYPE svg PUBLIC "-//W3C//DTD SVG 1.1//EN" "http://www.w3.org/Graphics/SVG/1.1/DTD/svg11.dtd">
<svg version="1.1" id="&#x56FE;&#x5C42;_1" xmlns="http://www.w3.org/2000/svg" xmlns:xlink="http://www.w3.org/1999/xlink" x="0px"
	 y="0px" width="50px" height="50px" viewBox="0 0 50 50" style="enable-background:new 0 0 50 50;" xml:space="preserve">
<g>
	<path style="fill:#FFFFFF;" d="M35.938,50c1.725,0,3.125-1.4,3.125-3.125V3.125C39.062,1.4,37.662,0,35.938,0H14.062
		c-1.725,0-3.125,1.4-3.125,3.125v43.75c0,1.725,1.4,3.125,3.125,3.125H35.938z M23.438,45.119c0-0.972,0.788-1.756,1.756-1.756
		c0.969,0,1.756,0.787,1.756,1.756c0,0.969-0.784,1.756-1.756,1.756S23.438,46.088,23.438,45.119z M31.25,3.125
		c0.862,0,1.562,0.7,1.562,1.562s-0.7,1.562-1.562,1.562h-3.125c-0.862,0-1.562-0.7-1.562-1.562s0.7-1.562,1.562-1.562H31.25z
		 M23.438,4.688c0,0.863-0.7,1.562-1.562,1.562s-1.562-0.7-1.562-1.562s0.7-1.562,1.562-1.562S23.438,3.825,23.438,4.688z
		 M14.062,9.375h21.875v31.25H14.062V9.375z"/>
</g>
</svg>
